HIERARCHY
ROOT Hips
{
  OFFSET 0.0 0.0 0.0
  CHANNELS 6 XPOSITION YPOSITION ZPOSITION ZROTATION XROTATION YROTATION 
  JOINT LeftUpLeg
  {
    OFFSET 0.08945800000000001 -0.0866707 0.0010165200000000001
    CHANNELS 3 ZROTATION XROTATION YROTATION 
    JOINT LeftLeg
    {
      OFFSET 0.0 -0.444227 0.013727000000000001
      CHANNELS 3 ZROTATION XROTATION YROTATION 
      JOINT LeftFoot
      {
        OFFSET -0.0025354900000000005 -0.42092399999999996 -0.014605900000000002
        CHANNELS 3 ZROTATION XROTATION YROTATION 
        End Site
        {
          OFFSET -0.0004 -0.0441509 0.08499100000000001
        }
      }
    }
  }
  JOINT Spine
  {
    OFFSET 0.0 0.118905 0.0
    CHANNELS 3 ZROTATION XROTATION YROTATION 
    JOINT Spine1
    {
      OFFSET 0.0 0.25657399999999997 0.00127663
      CHANNELS 3 ZROTATION XROTATION YROTATION 
      End Site
      {
        OFFSET -0.0029 0.21508359999999999 0.02525291
      }
      JOINT RightArm
      {
        OFFSET -0.162727 -0.05365632 0.0010212299999999997
        CHANNELS 3 ZROTATION XROTATION YROTATION 
        JOINT RightForeArm
        {
          OFFSET -0.26364 0.00099144 -0.0142434
          CHANNELS 3 ZROTATION XROTATION YROTATION 
          End Site
          {
            OFFSET -0.220324 0.0008536199999999999 0.010221599999999999
          }
        }
      }
      JOINT LeftArm
      {
        OFFSET 0.162727 -0.053656319900000006 0.0010212299999999997
        CHANNELS 3 ZROTATION XROTATION YROTATION 
        JOINT LeftForeArm
        {
          OFFSET 0.26259699999999997 0.00099144 -0.0142434
          CHANNELS 3 ZROTATION XROTATION YROTATION 
          End Site
          {
            OFFSET 0.220902 0.0008536199999999999 0.010221599999999999
          }
        }
      }
    }
  }
  JOINT RightUpLeg
  {
    OFFSET -0.08945800000000001 -0.0866707 0.0010165200000000001
    CHANNELS 3 ZROTATION XROTATION YROTATION 
    JOINT RightLeg
    {
      OFFSET 0.0 -0.444227 0.013727000000000001
      CHANNELS 3 ZROTATION XROTATION YROTATION 
      JOINT RightFoot
      {
        OFFSET 0.0025354900000000005 -0.42092399999999996 -0.014605900000000002
        CHANNELS 3 ZROTATION XROTATION YROTATION 
        End Site
        {
          OFFSET 0.0004 -0.0441509 0.08499100000000001
        }
      }
    }
  }
}
MOTION
Frames: 12
Frame Time: 0.033333
-16.109289500000003 0.9028106093824391 0.20190573999999994 6.906970314680626 0.028997998343165566 -90.12410021150812 -5.530699576640927 -34.302398464719616 -4.762229870480915 1.2882699404430198 39.49059991297755 20.387400917719795 -2.9641456457648583 -12.705309573288034 -0.15109623085961882 3.6309900344813086 46.56310028908025 1.2576600207907844 -5.231930026871645 -1.7899999487814064 3.524189994967816 88.41586306989878 -25.33737732055873 63.00714954610113 -9.620019210092186 23.981099826880126 85.93789775977483 -69.90484830587029 -17.763179059351074 -9.029904526181426 23.382300557439695 29.4660986077845 -77.53759836373789 -3.2726100087307395 -45.713202775182644 -3.3352898009703003 -1.1911100726127652 42.30340158678303 -16.59959998517875 10.45269696331855 -10.145987318639127 0.3854440100065099 
-16.120907500000005 0.9004146093824391 0.19992523999999995 6.913409902407479 0.10207999860093717 -89.73100233420638 -6.169070400811475 -34.11110194154048 -6.227330206884392 1.3518400051522093 40.77009925019604 21.35360118525709 -3.500276435466543 -13.96992678207871 -0.22538581056368065 4.056460020241151 46.584099705683464 1.155510059441601 -5.327880097445161 -1.8137599357480594 3.473459832124604 89.12709749836137 -26.014525689968377 64.30078054471238 -9.928909392664135 23.680499786413282 87.77549868426422 -69.67764206312982 -18.17224591893231 -6.205144044912898 23.073200346550767 29.202999720955606 -77.90039752188144 -3.3448298676935155 -45.116701864397925 -3.4037001219235017 -1.150950054396971 32.92750187536356 -18.159200257617584 10.09862166429238 -9.9607713713686 0.3493453930259347 
-16.134295500000004 0.8958886093824391 0.19686633999999997 6.770219682213216 -0.44248001159880385 -88.81939747625229 -7.4641997721718925 -33.867499829697394 -8.222100614364956 1.4239400156393929 42.59969860807277 22.189899792517206 -4.063655197644937 -15.47696106489148 -0.3220633496446559 4.34751017558785 46.55390002426825 0.8372750041463107 -5.456519880273181 -1.7154800236156287 3.256530035877237 89.60576398558503 -26.843478428776145 65.1242759623733 -10.036900659857562 23.385799321842033 89.44410023812 -69.62636100284136 -18.32069154280607 -3.831613607858916 22.682001261838288 29.030899444438795 -77.9891011886324 -4.46947985180453 -43.773797881114206 -4.663470030837585 -0.6985259543772899 25.145197995429374 -18.94350063472639 10.456989737211902 -10.655210364662135 0.43030434562960984 
-16.149204500000003 0.8897626093824391 0.19242653999999998 6.412260139983426 -1.0324199120359219 -87.42969986696482 -8.995700646365293 -33.430801439828876 -10.201499681118406 1.4893100486382924 44.79929955857284 22.51230008926744 -4.715688961476449 -17.150722826665202 -0.45108282162142 4.44037983084569 46.511098643834366 0.5364860128993785 -5.287660101630718 -1.5652099921815301 2.932810018513309 89.82142037843902 -27.89354829667932 65.31063084368793 -9.932100798553824 23.112900821101466 90.94930317646156 -69.33961600110588 -17.939618213538136 -1.9819992343931094 22.21780111527671 28.95529949561051 -77.78569815514942 -5.909259823181122 -42.14760155672045 -4.499319667627846 0.30880000273056385 20.890401661408923 -20.105300444619928 10.879605984559149 -11.509069388278354 0.5289174162470639 
-16.164509500000005 0.8836036093824392 0.18693273999999996 6.107769879897434 -1.508350054723349 -85.95799900650218 -10.123000316987449 -33.000800050441555 -11.764900100056705 1.5441001186128422 46.96680203506845 22.388499495466377 -5.605557169283798 -18.815144304748927 -0.6313935191291156 4.659739893777112 46.41690008989613 0.3852360360823683 -4.80505985233195 -1.4587699249816382 2.6453898952670603 89.77985867733949 -29.080722259339453 64.84699077263829 -9.62199996495149 22.867599699702335 92.33770304980673 -68.85601128711231 -17.077298293087562 -0.743807867418653 21.950100388494523 28.963799666032592 -77.53610255230964 -6.717800114767484 -41.1357022009939 -4.50652978607044 0.4541020320388301 20.224400160724734 -20.354699679521065 9.456084424728125 -9.66245176031089 0.3011236971966893 
-16.179744500000005 0.8786346093824392 0.18133303999999995 6.153439939782724 -1.6121599654842573 -84.79429869647208 -10.610300163322009 -32.826100886945554 -12.952300312733096 1.5956999566364671 48.81619869625446 22.269100958585383 -6.579711618996397 -20.321641563938204 -0.8430119895231512 5.340080095963273 46.27910102339113 0.22523199790522314 -4.501910016870573 -1.4781599782616581 2.537409940574448 89.60323681559213 -30.16574562032017 64.09407852986028 -9.339839727696386 22.671899412055836 93.49750332182074 -68.67173278330536 -16.241399251893892 -0.12881183155795306 22.04750230115349 29.01639895283086 -77.48840051114628 -7.095080127725124 -41.17219931682386 -5.027110156022711 0.44656099626703355 21.284500161424074 -20.714500384618997 6.603890061771419 -3.551342771682967 -0.16823492305511298 
-16.195007500000003 0.8752546093824392 0.17629956999999996 6.48990018093943 -1.3435200876911932 -84.2222976742402 -10.44800035449052 -32.8149984144497 -13.728599977002881 1.6474499521001265 50.26719725334279 22.355600181781718 -7.478633669435421 -21.675603623488172 -1.0608042572357907 6.272779993168949 46.21740050952381 0.0008496779923513992 -4.584969812932982 -1.6077500111579563 2.632310083006486 89.4241697461219 -30.76075071967666 63.51333486549078 -9.312400296479506 22.582999377366246 94.02450022761143 -69.06280209442362 -15.872352178207056 0.02883312664794645 22.18599975450113 29.028399595202572 -77.57739787603154 -7.448599620107583 -41.95890050542592 -6.500910018994667 0.7916119878936021 22.707800593880716 -20.600499404729607 4.782031442658429 3.743762434093743 -0.4403789813770844 
-16.210305500000004 0.8733976093824392 0.17143100999999997 6.879650411774222 -0.8929700208250343 -84.18089989768075 -9.716249745308497 -32.68990008470633 -13.938199699610356 1.6871900204036705 51.279400552487424 22.41829961081514 -8.423467397701625 -22.91996334497424 -1.3016243476525697 6.814799900039066 46.2924984394481 -0.11204499780604114 -4.5911396081876195 -1.7813499410844085 2.7729099539580218 89.20003025831876 -30.52697041986005 63.13851457440799 -9.34633011495519 22.67029944024276 93.52679800317092 -69.73627923715438 -15.889774283232466 -0.1158835507793751 22.03030046972881 28.935799305530125 -77.6750969019194 -7.442460133817388 -42.854700305640606 -8.870499863784374 0.8726319586325577 24.545599593856046 -18.819799078668293 4.2525197465927205 7.267448489166859 -0.5065968382871382 
-16.225374500000004 0.8732866093824392 0.16603811999999996 7.31025072337439 -0.5282409607149682 -84.30889764272678 -8.783640348109323 -32.312200868888375 -13.787000655727429 1.6990999493254686 51.62120029402779 22.376999164451366 -9.373918102786519 -23.88229772544131 -1.542625438082354 6.658790268546335 46.42080012791221 -0.042562700673957996 -4.145769866280945 -1.9332801353736433 2.7429401510970637 88.81570917410049 -29.527570310314612 62.51275313321893 -9.172220055275103 22.901899202166845 92.17929730257579 -70.25408270832222 -15.902225718089399 -0.716798684758631 21.780300178180713 28.776000199708506 -77.86419751928038 -6.7284795424216215 -43.614497379102 -10.838300415553498 0.16155601190304544 26.787699688919236 -16.018600188715368 3.239349762237128 6.3910310582693795 -0.39283720953537266 
-16.240200500000004 0.8750916093824391 0.16021732999999996 7.896689911738038 -0.44589801435029275 -84.27739681027468 -8.158310062611621 -31.685800805011922 -13.76080005007126 1.683210047829963 51.12170172983558 22.455300453096392 -10.043194679177727 -24.41234431069639 -1.7104045527320746 6.170360025904139 46.45700013051328 -0.021515999684986003 -3.5571900539427324 -2.0758398437301495 2.46493992593332 88.30219506173141 -28.230867434124157 61.18419937738141 -8.980659716039279 23.150801540805865 90.6608028161094 -70.49266804621993 -15.610658602799896 -2.100161080147507 21.7444980340988 28.624499773728452 -78.21770078996356 -5.866020029979888 -44.215700875130274 -11.221099221360507 -0.5722160664690374 28.59990084743265 -14.596500162005354 1.4437169351028705 4.467528979022845 -0.21969957135793924 
-16.255317500000004 0.8780596093824391 0.15456383999999995 8.587570376473998 -0.5659549707951043 -84.07389815414332 -7.833039378862689 -30.877898709226134 -13.93150013780822 1.6538300958368588 50.10080018478295 22.599398661563445 -10.55583367355939 -24.737227381209927 -1.8363247463316659 5.914530167899433 46.38959640868901 -0.2575899924177321 -3.2015401828694645 -2.2533302067191587 2.050530150873844 87.68202071528343 -27.0119467522018 59.054525903603924 -8.985410112607024 23.368699943254907 89.32670294666582 -70.60106314834803 -15.071703743319821 -4.324407060720282 21.802300217497326 28.478400319834588 -78.63639821627451 -5.3878495852446955 -44.65889818999406 -10.843000439476112 -0.8974140727363326 29.81700299148849 -14.608000493020363 0.20786026552494194 3.453255065342648 -0.13675184642681357 
-16.271135500000003 0.8807826093824391 0.14926203999999996 9.196950462712428 -0.6158949661287103 -83.88520051794337 -7.300979595349744 -30.0055025522025 -13.81710044562603 1.6117100267726827 49.15230206002703 22.385099768807002 -11.252398563232092 -25.159852166293636 -2.0104215725202366 5.993759935384758 46.26960023025564 -0.6479309545744503 -2.940190037911508 -2.4958800425432432 1.6477800423361084 86.75928264898222 -25.78965537192405 56.2941903279079 -8.810820232137742 23.61620038556678 87.75830026793413 -70.75252259319306 -14.624415145143196 -7.040034352543522 21.794899707531616 28.274601135379747 -79.14980304561686 -4.900679939391189 -44.929899605692654 -10.046100070895923 -1.0094199970578444 30.984200358373627 -15.213699961069802 0.046899600657598337 2.467063687878371 -0.13312911142299616 
